<mxfile host="app.diagrams.net" agent="Mozilla/5.0 (Windows NT 10.0; Win64; x64) AppleWebKit/537.36 (KHTML, like Gecko) Chrome/137.0.0.0 Safari/537.36" version="27.1.6">
  <diagram name="Sayfa -1" id="IcrTC51JRGi75wNb6ho9">
    <mxGraphModel dx="1601" dy="745" grid="1" gridSize="10" guides="1" tooltips="1" connect="1" arrows="1" fold="1" page="1" pageScale="1" pageWidth="827" pageHeight="1169" math="0" shadow="0">
      <root>
        <mxCell id="0" />
        <mxCell id="1" parent="0" />
        <mxCell id="MeK94Ix5EJN4rddFAMZR-1" value="Hotel Reservation System" style="whiteSpace=wrap;strokeWidth=2;" vertex="1" parent="1">
          <mxGeometry x="20" y="146" width="1293" height="104" as="geometry" />
        </mxCell>
        <mxCell id="MeK94Ix5EJN4rddFAMZR-2" value="Guest" style="whiteSpace=wrap;strokeWidth=2;" vertex="1" parent="1">
          <mxGeometry x="413" y="20" width="101" height="54" as="geometry" />
        </mxCell>
        <mxCell id="MeK94Ix5EJN4rddFAMZR-3" value="Book Room" style="rounded=1;arcSize=20;strokeWidth=2" vertex="1" parent="1">
          <mxGeometry x="55" y="171" width="108" height="54" as="geometry" />
        </mxCell>
        <mxCell id="MeK94Ix5EJN4rddFAMZR-4" value="Manage Booking" style="rounded=1;arcSize=20;strokeWidth=2" vertex="1" parent="1">
          <mxGeometry x="213" y="171" width="144" height="54" as="geometry" />
        </mxCell>
        <mxCell id="MeK94Ix5EJN4rddFAMZR-5" value="Register" style="rounded=1;arcSize=20;strokeWidth=2" vertex="1" parent="1">
          <mxGeometry x="425" y="171" width="88" height="54" as="geometry" />
        </mxCell>
        <mxCell id="MeK94Ix5EJN4rddFAMZR-6" value="Login" style="rounded=1;arcSize=20;strokeWidth=2" vertex="1" parent="1">
          <mxGeometry x="563" y="171" width="68" height="54" as="geometry" />
        </mxCell>
        <mxCell id="MeK94Ix5EJN4rddFAMZR-7" value="Registered Guest" style="whiteSpace=wrap;strokeWidth=2;" vertex="1" parent="1">
          <mxGeometry x="117" y="20" width="181" height="54" as="geometry" />
        </mxCell>
        <mxCell id="MeK94Ix5EJN4rddFAMZR-8" value="Receptionist" style="whiteSpace=wrap;strokeWidth=2;" vertex="1" parent="1">
          <mxGeometry x="792" y="20" width="149" height="54" as="geometry" />
        </mxCell>
        <mxCell id="MeK94Ix5EJN4rddFAMZR-9" value="Check-in Guest" style="rounded=1;arcSize=20;strokeWidth=2" vertex="1" parent="1">
          <mxGeometry x="681" y="171" width="138" height="54" as="geometry" />
        </mxCell>
        <mxCell id="MeK94Ix5EJN4rddFAMZR-10" value="Check-out Guest" style="rounded=1;arcSize=20;strokeWidth=2" vertex="1" parent="1">
          <mxGeometry x="869" y="171" width="149" height="54" as="geometry" />
        </mxCell>
        <mxCell id="MeK94Ix5EJN4rddFAMZR-11" value="Manager" style="whiteSpace=wrap;strokeWidth=2;" vertex="1" parent="1">
          <mxGeometry x="1112" y="20" width="120" height="54" as="geometry" />
        </mxCell>
        <mxCell id="MeK94Ix5EJN4rddFAMZR-12" value="Generate Monthly Report" style="rounded=1;arcSize=20;strokeWidth=2" vertex="1" parent="1">
          <mxGeometry x="1067" y="171" width="210" height="54" as="geometry" />
        </mxCell>
        <mxCell id="MeK94Ix5EJN4rddFAMZR-13" value="" style="curved=1;startArrow=none;endArrow=block;exitX=0;exitY=0.71;entryX=0.88;entryY=0.01;rounded=0;" edge="1" parent="1" source="MeK94Ix5EJN4rddFAMZR-2" target="MeK94Ix5EJN4rddFAMZR-3">
          <mxGeometry relative="1" as="geometry">
            <Array as="points">
              <mxPoint x="187" y="110" />
              <mxPoint x="187" y="146" />
            </Array>
          </mxGeometry>
        </mxCell>
        <mxCell id="MeK94Ix5EJN4rddFAMZR-14" value="" style="curved=1;startArrow=none;endArrow=block;exitX=0.07;exitY=1;entryX=0.77;entryY=0.01;rounded=0;" edge="1" parent="1" source="MeK94Ix5EJN4rddFAMZR-2" target="MeK94Ix5EJN4rddFAMZR-4">
          <mxGeometry relative="1" as="geometry">
            <Array as="points">
              <mxPoint x="361" y="110" />
              <mxPoint x="361" y="146" />
            </Array>
          </mxGeometry>
        </mxCell>
        <mxCell id="MeK94Ix5EJN4rddFAMZR-15" value="Extends" style="curved=1;startArrow=none;endArrow=block;exitX=0.52;exitY=1;entryX=0.5;entryY=0.01;rounded=0;" edge="1" parent="1" source="MeK94Ix5EJN4rddFAMZR-2" target="MeK94Ix5EJN4rddFAMZR-5">
          <mxGeometry relative="1" as="geometry">
            <Array as="points">
              <mxPoint x="469" y="110" />
            </Array>
          </mxGeometry>
        </mxCell>
        <mxCell id="MeK94Ix5EJN4rddFAMZR-16" value="Extends" style="curved=1;startArrow=none;endArrow=block;exitX=1;exitY=0.82;entryX=0.89;entryY=0.01;rounded=0;" edge="1" parent="1" source="MeK94Ix5EJN4rddFAMZR-2" target="MeK94Ix5EJN4rddFAMZR-6">
          <mxGeometry relative="1" as="geometry">
            <Array as="points">
              <mxPoint x="648" y="110" />
              <mxPoint x="648" y="146" />
            </Array>
          </mxGeometry>
        </mxCell>
        <mxCell id="MeK94Ix5EJN4rddFAMZR-17" value="" style="curved=1;startArrow=none;endArrow=block;exitX=0.21;exitY=1;entryX=0.38;entryY=0.01;rounded=0;" edge="1" parent="1" source="MeK94Ix5EJN4rddFAMZR-7" target="MeK94Ix5EJN4rddFAMZR-3">
          <mxGeometry relative="1" as="geometry">
            <Array as="points">
              <mxPoint x="85" y="110" />
              <mxPoint x="85" y="146" />
            </Array>
          </mxGeometry>
        </mxCell>
        <mxCell id="MeK94Ix5EJN4rddFAMZR-18" value="" style="curved=1;startArrow=none;endArrow=block;exitX=0.5;exitY=1;entryX=0.22;entryY=0.01;rounded=0;" edge="1" parent="1" source="MeK94Ix5EJN4rddFAMZR-7" target="MeK94Ix5EJN4rddFAMZR-4">
          <mxGeometry relative="1" as="geometry">
            <Array as="points">
              <mxPoint x="207" y="146" />
            </Array>
          </mxGeometry>
        </mxCell>
        <mxCell id="MeK94Ix5EJN4rddFAMZR-19" value="" style="curved=1;startArrow=none;endArrow=block;exitX=1;exitY=0.8;entryX=0.2;entryY=0.01;rounded=0;" edge="1" parent="1" source="MeK94Ix5EJN4rddFAMZR-7" target="MeK94Ix5EJN4rddFAMZR-6">
          <mxGeometry relative="1" as="geometry">
            <Array as="points">
              <mxPoint x="558" y="110" />
              <mxPoint x="558" y="146" />
            </Array>
          </mxGeometry>
        </mxCell>
        <mxCell id="MeK94Ix5EJN4rddFAMZR-20" value="" style="curved=1;startArrow=none;endArrow=block;exitX=0.17;exitY=1;entryX=0.5;entryY=0.01;rounded=0;" edge="1" parent="1" source="MeK94Ix5EJN4rddFAMZR-8" target="MeK94Ix5EJN4rddFAMZR-9">
          <mxGeometry relative="1" as="geometry">
            <Array as="points">
              <mxPoint x="750" y="110" />
            </Array>
          </mxGeometry>
        </mxCell>
        <mxCell id="MeK94Ix5EJN4rddFAMZR-21" value="" style="curved=1;startArrow=none;endArrow=block;exitX=0.72;exitY=1;entryX=0.5;entryY=0.01;rounded=0;" edge="1" parent="1" source="MeK94Ix5EJN4rddFAMZR-8" target="MeK94Ix5EJN4rddFAMZR-10">
          <mxGeometry relative="1" as="geometry">
            <Array as="points">
              <mxPoint x="943" y="110" />
            </Array>
          </mxGeometry>
        </mxCell>
        <mxCell id="MeK94Ix5EJN4rddFAMZR-22" value="" style="curved=1;startArrow=none;endArrow=block;exitX=0.5;exitY=1;entryX=0.5;entryY=0.01;rounded=0;" edge="1" parent="1" source="MeK94Ix5EJN4rddFAMZR-11" target="MeK94Ix5EJN4rddFAMZR-12">
          <mxGeometry relative="1" as="geometry">
            <Array as="points" />
          </mxGeometry>
        </mxCell>
      </root>
    </mxGraphModel>
  </diagram>
</mxfile>
